<?xml version="1.0" encoding="UTF-8" standalone="no"?>
<!DOCTYPE svg PUBLIC "-//W3C//DTD SVG 1.1//EN" "http://www.w3.org/Graphics/SVG/1.1/DTD/svg11.dtd">
<svg width="100%" height="100%" viewBox="0 0 512 512" version="1.1" xmlns="http://www.w3.org/2000/svg" xmlns:xlink="http://www.w3.org/1999/xlink" xml:space="preserve" xmlns:serif="http://www.serif.com/" style="fill-rule:evenodd;clip-rule:evenodd;stroke-linejoin:round;stroke-miterlimit:2;">
    <g transform="matrix(0.283927,-0.283927,0.338201,0.338201,91.8505,245.486)">
        <path d="M496,224L293.9,224L206.73,197.17C188.514,191.559 176.001,174.61 176.001,155.55C176.001,131.66 195.66,112.001 219.55,112L286.34,112C305.221,111.986 322.557,122.692 331,139.58C334.927,147.425 344.612,150.652 352.46,146.73L395.4,125.26C403.249,121.336 406.481,111.65 402.56,103.8L402.03,102.8C380.388,59.476 335.939,31.996 287.51,32L219.51,32C151.699,32.055 95.93,87.869 95.93,155.68C95.93,159.674 96.124,163.665 96.51,167.64C98.51,188.53 106.61,207.47 118.29,224L16,224C7.223,224 -0,231.223 0,240L0,272C0,280.777 7.223,288 16,288L496,288C504.777,288 512,280.777 512,272L512,240C512,231.223 504.777,224 496,224ZM315.76,320C328.326,327.839 335.989,341.639 336,356.45C335.978,380.333 316.333,399.978 292.45,400L225.66,400C206.779,400.014 189.443,389.308 181,372.42C177.073,364.575 167.388,361.348 159.54,365.27L116.6,386.74C108.751,390.664 105.519,400.35 109.44,408.2L109.97,409.2C131.612,452.524 176.061,480.004 224.49,480L292.49,480C360.301,479.945 416.07,424.131 416.07,356.32C416.07,352.326 415.876,348.335 415.49,344.36C414.604,336.069 412.814,327.901 410.15,320L315.76,320Z" style="fill:rgb(34,139,34);fill-rule:nonzero;"/>
    </g>
</svg>
